<?xml version="1.0" encoding="utf-8"?>
<!-- Generator: Adobe Illustrator 23.0.2, SVG Export Plug-In . SVG Version: 6.00 Build 0)  -->
<svg version="1.1" id="Layer_1" xmlns="http://www.w3.org/2000/svg" xmlns:xlink="http://www.w3.org/1999/xlink" x="0px" y="0px"
	 width="1500px" height="1500px" viewBox="0 0 1500 1500" style="enable-background:new 0 0 1500 1500;" xml:space="preserve">
<style type="text/css">
	.st0{display:none;}
	.st1{display:inline;fill:#C1C3BC;}
	.st2{clip-path:url(#SVGID_2_);}
	.st3{fill:#704C55;}
	.st4{fill:#5A344B;}
	.st5{fill:#916A67;}
	.st6{fill:#FFE887;}
	.st7{fill:#FF6C72;}
	.st8{fill:#FFF3E1;}
	.st9{fill:#FFCA6D;}
	.st10{fill:#5CB4FF;}
	.st11{fill:#F13C5B;}
	.st12{fill:#489CFF;}
	.st13{fill:#99E176;}
	.st14{display:none;clip-path:url(#SVGID_2_);}
	.st15{display:inline;}
	.st16{fill:none;stroke:#BABABA;stroke-width:15;stroke-linecap:round;stroke-miterlimit:10;}
	
		.st17{fill:none;stroke:#BABABA;stroke-width:15;stroke-linecap:round;stroke-miterlimit:10;stroke-dasharray:154.5455,128.7879,51.5152,103.0303;}
	
		.st18{fill:none;stroke:#BABABA;stroke-width:15;stroke-linecap:round;stroke-miterlimit:10;stroke-dasharray:206.0606,77.2727,154.5455,128.7879,51.5152,103.0303;}
	.st19{fill:#FFDCA7;}
	.st20{fill:#FFCF86;}
	.st21{fill:#FFE9C8;}
	.st22{fill:#FFAE8B;}
	.st23{display:inline;fill:#59AC98;}
	.st24{display:inline;fill:#70CE90;}
	.st25{display:inline;fill:#243242;}
	.st26{display:inline;fill:#BF5763;}
	.st27{display:inline;fill:#E7E4DD;}
	.st28{fill:#243242;}
	.st29{fill:#595965;}
	.st30{fill:#AA7569;}
	.st31{fill:#9A6758;}
	.st32{fill:#F1CC76;}
	.st33{fill:#EBB15D;}
	.st34{fill:none;}
	.st35{display:inline;fill:#E6E6E6;stroke:#CC5656;stroke-width:4;stroke-linecap:round;stroke-miterlimit:10;}
	.st36{fill:#333333;}
	.st37{fill:#E6E6E6;}
	.st38{font-family:'MVBoli';}
	.st39{font-size:72px;}
	.st40{font-size:48px;}
	.st41{font-size:36px;}
	.st42{fill:#666666;}
	.st43{fill:#B3B3B3;}
	.st44{fill:#EAB14D;}
	.st45{fill:#E49542;}
	.st46{fill:#F4FBFF;}
	.st47{fill:#DAF1F4;}
	.st48{fill:#365E7D;}
	.st49{fill:#915628;}
	.st50{fill:#7A4922;}
	.st51{fill:#D6A27F;}
	.st52{fill:#EAE9E4;}
	.st53{fill:#CDCCC8;}
	.st54{fill:#89B140;}
	.st55{fill:#AAC16B;}
	.st56{fill:#668D31;}
	.st57{fill:#79A73A;}
	.st58{fill:#F4A95A;}
	.st59{fill:#A3612D;}
	.st60{fill:#EE9D0D;}
	.st61{fill:#DCDBD6;}
	.st62{fill:#5B89B9;}
	.st63{fill:#C79777;}
	.st64{fill:#E8B65B;}
	.st65{fill:#C59A4D;}
	.st66{fill:#DCAC56;}
	.st67{fill:#F2F2F2;stroke:#000000;stroke-width:3;stroke-miterlimit:10;}
</style>
<g class="st0">
	<rect class="st1" width="1500" height="1500"/>
</g>
<g>
	<defs>
		<rect id="SVGID_1_" width="1500" height="1500"/>
	</defs>
	<clipPath id="SVGID_2_">
		<use xlink:href="#SVGID_1_"  style="overflow:visible;"/>
	</clipPath>
	<g class="st2">
		<g>
			<path class="st3" d="M1475.2,870H679.8c-13.7,0-24.8,12.7-24.8,21v594c0,8.3,11.1,15,24.8,15h795.5c13.7,0,24.8-6.7,24.8-15V885
				C1500,876.7,1488.9,870,1475.2,870z"/>
			<path class="st4" d="M1500,885v600c0,8.3-9.5,15-21.2,15H1138V870h340.8C1490.5,870,1500,876.7,1500,885z"/>
			<path class="st5" d="M704.5,900h746v212h-746V900z"/>
			<path class="st3" d="M1138,900h332v212h-332V900z"/>
			<path class="st5" d="M1450.5,1470H979.2l-75-15l-74.9,15H704.5v-328h746V1470z"/>
			<path class="st3" d="M1138,1142h332v328h-332V1142z"/>
			<path class="st6" d="M1123,1112h-60v-101c0-5.5,4.5-10,10-10h40c5.5,0,10,4.5,10,10V1112z"/>
			<path class="st7" d="M1184,1112h-60V956c0-5.5,4.5-10,10-10h40c5.5,0,10,4.5,10,10V1112z"/>
			<path class="st8" d="M1243,1112h-60V984c0-5.5,4.5-10,10-10h40c5.5,0,10,4.5,10,10V1112z"/>
			<path class="st9" d="M1303,1112h-60v-101c0-5.5,4.5-10,10-10h40c5.5,0,10,4.5,10,10V1112z"/>
			<path class="st10" d="M1363,1112h-60V970c0-5.5,4.5-10,10-10h40c5.5,0,10,4.5,10,10V1112z"/>
			<path class="st6" d="M942.5,1110.5h-60v-101c0-5.5,4.5-10,10-10h40c5.5,0,10,4.5,10,10V1110.5z"/>
			<path class="st7" d="M884,1112h-60V956c0-5.5,4.5-10,10-10h40c5.5,0,10,4.5,10,10V1112z"/>
			<path class="st8" d="M824,1112h-60V984c0-5.5,4.5-10,10-10h40c5.5,0,10,4.5,10,10V1112z"/>
			<path class="st9" d="M1003,1112h-60v-101c0-5.5,4.5-10,10-10h40c5.5,0,10,4.5,10,10V1112z"/>
			<path class="st10" d="M1063,1112h-60V970c0-5.5,4.5-10,10-10h40c5.5,0,10,4.5,10,10V1112z"/>
		</g>
	</g>
	<g class="st2">
		<g>
			<path class="st3" d="M1475.2,385.7H679.8c-13.7,0-24.8,12.7-24.8,21v476c0,8.3,11.1,15,24.8,15h795.5c13.7,0,24.8-6.7,24.8-15
				v-482C1500,392.4,1488.9,385.7,1475.2,385.7z"/>
			<path class="st4" d="M1500,400.7v482c0,8.3-9.5,15-21.2,15H1138v-512h340.8C1490.5,385.7,1500,392.4,1500,400.7z"/>
			<path class="st5" d="M704.5,415.7h746v212h-746V415.7z"/>
			<path class="st3" d="M1138,415.7h332v212h-332V415.7z"/>
			<path class="st5" d="M1450.5,867.7H979.2l-75-15l-74.9,15H704.5v-210h746V867.7z"/>
			<path class="st3" d="M1138,657.7h332v210h-332V657.7z"/>
			<path class="st6" d="M1123,627.7h-60v-101c0-5.5,4.5-10,10-10h40c5.5,0,10,4.5,10,10V627.7z"/>
			<path class="st7" d="M1184,627.7h-60v-156c0-5.5,4.5-10,10-10h40c5.5,0,10,4.5,10,10V627.7z"/>
			<path class="st8" d="M1243,627.7h-60v-128c0-5.5,4.5-10,10-10h40c5.5,0,10,4.5,10,10V627.7z"/>
			<path class="st9" d="M1303,627.7h-60v-101c0-5.5,4.5-10,10-10h40c5.5,0,10,4.5,10,10V627.7z"/>
			<path class="st10" d="M1363,627.7h-60v-142c0-5.5,4.5-10,10-10h40c5.5,0,10,4.5,10,10V627.7z"/>
			<path class="st6" d="M1304,867.7h-60v-170c0-5.5,4.5-10,10-10h40c5.5,0,10,4.5,10,10V867.7z"/>
			<path class="st11" d="M1364,867.7h-60v-110c0-5.5,4.5-10,10-10h40c5.5,0,10,4.5,10,10V867.7z"/>
			<path class="st12" d="M1424,867.7h-60v-140c0-5.5,4.5-10,10-10h40c5.5,0,10,4.5,10,10V867.7z"/>
			<path class="st13" d="M1198,717.7v25c0,19.3-15.7,35-35,35h-9v20c-9.7,0-20.3,0-30,0v-50h-29.5c-8.6,0-15.5-6.9-15.5-15.5v-33.8
				c0-1.9,0.8-3.7,2.2-5c12.8-11.9,27.8-3,27.8,9.4v12.7c0,1.2,1,2.2,2.2,2.2h12.8v-14.5c0-7.7,5.6-14.5,13.3-15.3
				c9-1,16.7,6,16.7,14.9v44.9h9c2.8,0,5-2.2,5-5v-24.6c0-7.7,5.6-14.5,13.3-15.3C1190.3,701.7,1198,708.8,1198,717.7L1198,717.7z"
				/>
			<path class="st4" d="M1198.1,811.3l-14.1,56.4h-90.9l-14.1-56.3c-2.4-9.5,4.8-18.7,14.5-18.7c0.3,0,89.9,0,90,0
				C1193.3,792.7,1200.5,801.8,1198.1,811.3L1198.1,811.3z"/>
			<path class="st6" d="M823,627.7h-60v-101c0-5.5,4.5-10,10-10h40c5.5,0,10,4.5,10,10V627.7z"/>
			<path class="st7" d="M884,627.7h-60v-156c0-5.5,4.5-10,10-10h40c5.5,0,10,4.5,10,10V627.7z"/>
			<path class="st8" d="M943,627.7h-60v-128c0-5.5,4.5-10,10-10h40c5.5,0,10,4.5,10,10V627.7z"/>
			<path class="st9" d="M1003,627.7h-60v-101c0-5.5,4.5-10,10-10h40c5.5,0,10,4.5,10,10V627.7z"/>
			<path class="st10" d="M1063,627.7h-60v-142c0-5.5,4.5-10,10-10h40c5.5,0,10,4.5,10,10V627.7z"/>
			<path class="st6" d="M943,867.7h-60v-170c0-5.5,4.5-10,10-10h40c5.5,0,10,4.5,10,10V867.7z"/>
			<path class="st11" d="M1003,867.7h-60v-110c0-5.5,4.5-10,10-10h40c5.5,0,10,4.5,10,10V867.7z"/>
			<path class="st12" d="M1063,867.7h-60v-140c0-5.5,4.5-10,10-10h40c5.5,0,10,4.5,10,10V867.7z"/>
			<path class="st7" d="M881,867.7h-60v-156c0-5.5,4.5-10,10-10h40c5.5,0,10,4.5,10,10V867.7z"/>
			<path class="st10" d="M778.2,868.7l-40.3-9.8c-4.9-1.2-7.9-6.1-6.7-11l31.6-129.3c1.3-5.4,6.7-8.7,12.1-7.4l38.7,9.5
				c5.3,1.3,8.6,6.7,7.3,12.1L789.2,862C788,866.9,783.1,869.9,778.2,868.7z"/>
		</g>
	</g>
	<g class="st14">
		<g class="st15">
			<g>
				<polyline class="st16" points="-849.5,300.5 -949.5,300.5 -949.5,150.5 -849.5,150.5 				"/>
				<line class="st17" x1="-772.2" y1="150.5" x2="-385.9" y2="150.5"/>
				<line class="st18" x1="-334.3" y1="150.5" x2="2499" y2="150.5"/>
				<polyline class="st16" points="2550.5,150.5 2650.5,150.5 2650.5,300.5 2550.5,300.5 				"/>
				<line class="st17" x1="2473.2" y1="300.5" x2="2086.9" y2="300.5"/>
				<line class="st18" x1="2035.3" y1="300.5" x2="-798" y2="300.5"/>
			</g>
		</g>
		<g class="st15">
			<g>
				<polyline class="st16" points="-1379.5,600.5 -1479.5,600.5 -1479.5,450.5 -1379.5,450.5 				"/>
				<line class="st17" x1="-1302.2" y1="450.5" x2="-915.9" y2="450.5"/>
				<line class="st18" x1="-864.3" y1="450.5" x2="1969" y2="450.5"/>
				<polyline class="st16" points="2020.5,450.5 2120.5,450.5 2120.5,600.5 2020.5,600.5 				"/>
				<line class="st17" x1="1943.2" y1="600.5" x2="1556.9" y2="600.5"/>
				<line class="st18" x1="1505.3" y1="600.5" x2="-1328" y2="600.5"/>
			</g>
		</g>
		<g class="st15">
			<g>
				<polyline class="st16" points="-882.5,900.5 -982.5,900.5 -982.5,750.5 -882.5,750.5 				"/>
				<line class="st17" x1="-805.2" y1="750.5" x2="-418.9" y2="750.5"/>
				<line class="st18" x1="-367.3" y1="750.5" x2="2466" y2="750.5"/>
				<polyline class="st16" points="2517.5,750.5 2617.5,750.5 2617.5,900.5 2517.5,900.5 				"/>
				<line class="st17" x1="2440.2" y1="900.5" x2="2053.9" y2="900.5"/>
				<line class="st18" x1="2002.3" y1="900.5" x2="-831" y2="900.5"/>
			</g>
		</g>
		<g class="st15">
			<g>
				<polyline class="st16" points="-813.5,1200.5 -913.5,1200.5 -913.5,1050.5 -813.5,1050.5 				"/>
				<line class="st17" x1="-736.2" y1="1050.5" x2="-349.9" y2="1050.5"/>
				<line class="st18" x1="-298.3" y1="1050.5" x2="2535" y2="1050.5"/>
				<polyline class="st16" points="2586.5,1050.5 2686.5,1050.5 2686.5,1200.5 2586.5,1200.5 				"/>
				<line class="st17" x1="2509.2" y1="1200.5" x2="2122.9" y2="1200.5"/>
				<line class="st18" x1="2071.3" y1="1200.5" x2="-762" y2="1200.5"/>
			</g>
		</g>
		<g class="st15">
			<g>
				<polyline class="st16" points="-1449.5,1500.5 -1549.5,1500.5 -1549.5,1350.5 -1449.5,1350.5 				"/>
				<line class="st17" x1="-1372.2" y1="1350.5" x2="-985.9" y2="1350.5"/>
				<line class="st18" x1="-934.3" y1="1350.5" x2="1899" y2="1350.5"/>
				<polyline class="st16" points="1950.5,1350.5 2050.5,1350.5 2050.5,1500.5 1950.5,1500.5 				"/>
				<line class="st17" x1="1873.2" y1="1500.5" x2="1486.9" y2="1500.5"/>
				<line class="st18" x1="1435.3" y1="1500.5" x2="-1398" y2="1500.5"/>
			</g>
		</g>
	</g>
	<g id="Cat" class="st2">
		<path class="st19" d="M1177.2,807.7c1.6,32.3,43,82.4,38.2,146.3c-4.3,57.2-31.3,126.7-86.5,161.8c0.2,3.2,0.3,6.1,0.3,8.7
			c0,34.8-18.3,55.2-55.5,66.2c0,0,197.4-43,197.4-253.6C1271.3,722.2,1175.1,765.3,1177.2,807.7z"/>
		<path class="st20" d="M1159.5,1090.2c-9,9.7-19.1,18.4-30.5,25.6c0.2,3.2,0.3,6.1,0.3,8.7c0,34.8-18.3,55.2-55.5,66.2
			c0,0,39.7-8.6,83.5-37.2c3.7-8.3,5.6-17.9,5.6-29C1162.9,1115.7,1161.6,1103.9,1159.5,1090.2z"/>
		<path class="st21" d="M1013.9,666.1c0,0,26.1-66.9,48.5-62.3c22.7,4.7,18.3,80.2,18.3,80.2s46.9,72,45.4,113.4
			c-1.5,41.4-28.1,69-54.5,74c0,0,57.7,191.6,57.7,250.9s-53.1,76.9-162.1,76.9c-109,0-162.1-17.6-162.1-76.9s57.7-250.9,57.7-250.9
			c-26.3-5-52.9-32.6-54.5-74c-1.5-41.4,45.4-113.4,45.4-113.4s-4.4-75.5,18.3-80.2c22.4-4.6,48.5,62.3,48.5,62.3H1013.9z"/>
		<path class="st19" d="M967.2,1167.8c-99.2,0-152.1-14.6-160.8-61.9c-0.8,7.1-1.3,13.4-1.3,18.7c0,59.3,53.1,76.9,162.1,76.9
			c109,0,162.1-17.6,162.1-76.9c0-5.3-0.5-11.6-1.3-18.7C1119.3,1153.2,1066.5,1167.8,967.2,1167.8z"/>
		<path class="st22" d="M872.1,603.8c-22.7,4.7-18.3,80.2-18.3,80.2s-46.9,72-45.4,113.4c0.8,21.9,8.6,39.9,19.7,52.8
			c131.8-29.5,120.2-184.1,120.2-184.1h-27.8C920.6,666.1,894.5,599.1,872.1,603.8z"/>
		<path class="st22" d="M1062.4,603.8c22.7,4.7,18.3,80.2,18.3,80.2s46.9,72,45.4,113.4c-0.8,21.9-8.6,39.9-19.7,52.8
			c-131.8-29.5-120.2-184.1-120.2-184.1h27.8C1013.9,666.1,1040,599.1,1062.4,603.8z"/>
		<path class="st21" d="M868.9,980.1c0,0,9.1,241.6,43.9,241.6c34.8,0,35.6-217.8,35.6-217.8"/>
		<path class="st21" d="M1065.6,980.1c0,0-9.1,241.6-43.9,241.6s-35.6-217.8-35.6-217.8"/>
		<path d="M907.2,764.6c0-13.3-8.4-23.7-19-23.7c-10.7,0-19,10.4-19,23.7c0,13.3,8.4,23.7,19,23.7
			C898.9,788.3,907.2,777.9,907.2,764.6z"/>
		<path d="M1064.7,764.6c0-13.3-8.4-23.7-19-23.7c-10.7,0-19,10.4-19,23.7c0,13.3,8.4,23.7,19,23.7
			C1056.4,788.3,1064.7,777.9,1064.7,764.6z"/>
		<path d="M966.9,836.9c5.2,0,9.4-4.2,14.3-9.4v-21c6-3.1,14.5-11.4,14.5-20.4c0-3.3-1.3-11.2-12.9-13.9c-3.8-0.9-8.6-1.3-15.9-1.3
			c-7.3,0-12.1,0.4-15.9,1.3c-11.7,2.8-12.9,10.7-12.9,13.9c0,8.9,8.5,17.2,21,20.4v21C957.6,832.7,961.8,836.9,966.9,836.9z"/>
		<path d="M1183.8,855.6c11.6,27,26,60.5,23.2,98c-2.2,29.4-10.5,60-23.3,86.2c-2.3,4.7-0.4,10.3,4.3,12.6c1.3,0.7,2.7,1,4.1,1
			c3.5,0,6.8-1.9,8.4-5.3c13.9-28.3,22.8-61.3,25.2-93c3.2-42.1-12.2-77.9-24.6-106.8c-7.1-16.5-13.2-30.7-13.7-41.4
			c-0.6-11.4,9.1-22.9,20.8-24.7c6.8-1.1,30-0.3,44.5,54c1.3,5,6.5,8,11.5,6.6c5-1.3,8-6.5,6.6-11.5c-6.6-24.7-16-43-28.1-54.5
			c-11-10.5-24.3-15.2-37.4-13.1c-21.3,3.3-37.7,23.2-36.6,44.2C1169.3,821.7,1176,837.4,1183.8,855.6z"/>
		<path d="M1278.2,941.2c0-24.7-1.3-47.2-3.8-66.9c-0.6-5.1-5.3-8.6-10.3-8c-5.1,0.7-8.6,5.3-8,10.3c2.4,18.9,3.7,40.6,3.7,64.6
			c0,45.8-9.8,86.9-29.2,122.3c-15.5,28.3-37.1,53-64.2,73.5c-11.9,9-23.8,16.4-35,22.4c4.3-9.4,6.4-20.3,6.4-32.7
			c0-1.2,0-2.5-0.1-3.9c14.8-10.2,28.1-23.1,39.7-38.5c3.1-4.1,2.2-9.9-1.8-12.9c-4.1-3.1-9.9-2.2-12.9,1.8
			c-8.1,10.8-17.1,20.2-26.9,28.1c-8.8-64.9-42.8-182.8-52.7-216.6c16.2-6.1,31.8-19.4,41.5-38.7l13.2,7.2
			c4.4,2.4,10.1,0.7,12.5-3.7c2.4-4.5,0.8-10.1-3.7-12.5l-15.3-8.3c1.8-6.7,3-13.9,3.4-21.6l15.2-2.6c5-0.9,8.4-5.6,7.6-10.7
			c-0.9-5-5.6-8.4-10.7-7.6l-13.4,2.3c-6.8-38.2-36-86.3-43.4-98c0.2-6.2,0.6-21-0.8-36.3c-2.7-30.5-10.8-46.8-24.8-49.7
			c-13.7-2.8-27.5,8.1-42.2,33.6c-6.2,10.7-11.1,21.5-13.9,27.9h-81.7c0,0-7.8-25.7-14.1-36.6c-14.9-25.8-28.9-36.9-42.8-34.1
			c-14.2,2.9-22.4,19.4-25.2,50.4c-1.4,15.5-1,30.5-0.8,36.8c-7.5,11.9-37.1,60.7-44,99.5l-13.6-2.3c-5.1-0.9-10,2.6-10.8,7.7
			c-0.9,5.1,2.6,10,7.7,10.8l15.4,2.6c0.4,7.8,1.6,15.1,3.4,21.9l-15.6,8.5c-4.6,2.5-6.2,8.2-3.8,12.7c2.4,4.5,8.2,6.2,12.7,3.8
			l13.4-7.3c9.9,19.6,25.7,33.1,42.1,39.3c-2.7,9.1-7.1,24.3-12.3,42.9c-1.4,5,1.5,10.2,6.5,11.6c5,1.4,10.2-1.5,11.6-6.5
			c8.4-30.1,14.8-51.5,14.9-51.7c1.6-5.3-1.8-10.9-7.2-11.9c-22.4-4.3-45.7-28.2-47.1-65.5c-0.6-15.4,6.8-38.9,21.2-67.9
			c11.2-22.6,22.8-40.4,22.9-40.6c1.1-1.7,1.6-3.7,1.5-5.7c0-0.2-1-18.5,0.6-37.1c2.4-26.4,8.2-33.3,10.3-33.7
			c2.1-0.4,10.1,3.2,22.7,24.9c8.9,15.4,15.4,31.8,15.4,31.9c1.4,3.6,8.7,17.6,8.7,17.6h94.8c3.8,0,7.1-2.3,8.5-5.8
			c0.1-0.2,6.2-15.9,14.9-30.9c12.3-21.2,20.2-24.8,22.2-24.4c2,0.4,7.7,7.1,10,32.6c1.6,18.2,0.6,36.2,0.6,36.3
			c-0.1,1.9,0.4,3.9,1.5,5.5c0.1,0.2,11.4,17.6,22.3,39.5c14,28.2,21.2,51.1,20.6,66.1c-1.3,36.4-24.1,59.6-45.9,63.8
			c-5.2,1-8.6,6.5-7,11.6c0.6,1.9,56.1,186.8,56.1,242.8c0,18.7-5.8,32.1-18.3,41.9c-10.6,8.4-26.4,14.4-47.8,18.4
			c5.1-20,9.6-47.7,13.4-82.4c6.4-58.7,8.7-118.2,8.8-118.8c0.2-5-3.7-9.3-8.8-9.5c-5-0.2-9.3,3.7-9.5,8.8c0,0.5-2.1,55.6-8,111.7
			c-3.4,32.7-7.5,59.4-12,79.2c-6.5,28.6-12.3,35.1-13.9,36.4c-2.5-1.8-14.4-15.2-21.4-103c-4-50.6-4.2-100.3-4.2-100.8
			c0-5-4.1-9.1-9.1-9.1c0,0-1,0-1,0c-5.1,0-9.2,4.2-9.2,9.3c0,0.5,0.3,54.9,4.7,108.5c2.7,31.8,6.3,57.2,10.7,75.5
			c0.1,0.6,0.3,1.2,0.4,1.8c-7.9,0.2-16.3,0.4-25.4,0.4s-17.4-0.1-25.4-0.4c0.2-0.6,0.3-1.2,0.4-1.8c4.5-18.3,8.1-43.8,10.7-75.5
			c4.5-53.6,4.7-108,4.7-108.5c0-5.1-4.1-9.3-9.2-9.3c0,0,0,0,0,0c-5.1,0-9.2,4.1-9.2,9.2c0,0.5-0.2,50.7-4.3,101.9
			c-7,88.9-19.1,102.4-21.6,104.3c-1.2-0.9-4.3-4.4-8.3-16.1c-0.2-0.8-0.4-1.6-0.8-2.3c-1.6-4.8-3.2-10.9-5-18.5
			c-4.6-20-8.6-47-12.1-80.1c-6-56.8-8.1-112.5-8.1-113c-0.2-5.1-4.5-9.1-9.6-8.9c-5.1,0.2-9.1,4.5-8.9,9.6
			c0,0.6,2.3,60.8,8.9,120.2c3.8,35.1,8.4,63.1,13.5,83.4c-21.7-4-37.6-10.1-48.3-18.5c-12.7-10-18.6-23.5-18.6-42.5
			c0-25,11.2-80.1,32.3-159.2c1.3-4.9-1.6-10-6.5-11.3c-4.9-1.3-10,1.6-11.3,6.5c-21.9,81.9-33,137.1-33,164
			c0,24.8,8.4,43.4,25.7,57c14.7,11.6,36.3,19.4,65.8,23.7c5.2,13.6,12.7,24.7,24.2,24.7c10.8,0,17.9-9.3,22.7-20.6
			c9.7,0.4,20,0.6,31.3,0.6s21.6-0.2,31.3-0.6c4.8,11.3,11.8,20.6,22.7,20.6c11.5,0,19-11.1,24.2-24.7c10.8-1.6,20.5-3.7,29.2-6.2
			C1079.4,1200.5,1278.2,1155.2,1278.2,941.2z"/>
	</g>
	<g id="Bar" class="st14">
		<path class="st23" d="M547.2,1119.5h878.4v403.6H547.2V1119.5z"/>
		<path class="st24" d="M547.2,1119.5v300.4c32.8,9.2,67.3,14.1,103,14.1c188,0,344.2-135.7,376.3-314.5H547.2z"/>
		<path class="st25" d="M1427.2,1107.6H550c-14.8,0-28.6-9.8-31.3-24.4c-3.4-18.7,11.7-35,30.9-35h877.2c14.8,0,28.6,9.8,31.3,24.4
			C1461.5,1091.4,1446.3,1107.6,1427.2,1107.6z"/>
		<path class="st26" d="M832.1,1309.4H642.1v-51.8c0-17.3,14-31.3,31.3-31.3h127.2c17.3,0,31.3,14,31.3,31.3V1309.4z"/>
		<path class="st27" d="M772.7,1464.2l0-154.7h-59.4v154.7c0,21.5-10.7,42-29.3,52.9c-18,10.6-30.1,30.6-30.1,53.5h178.1
			c0-22.9-12.1-42.9-30-53.4C783.5,1506.2,772.7,1485.7,772.7,1464.2z"/>
		<path class="st26" d="M1081.3,1309.4H891.4v-51.8c0-17.3,14-31.3,31.3-31.3H1050c17.3,0,31.3,14,31.3,31.3V1309.4z"/>
		<path class="st27" d="M1022,1464.2v-154.7h-59.4v154.7c0,21.5-10.7,42-29.3,52.9c-18,10.6-30.1,30.6-30.1,53.5h178.1
			c0-22.9-12.1-42.9-30-53.4C1032.8,1506.2,1022,1485.7,1022,1464.2z"/>
		<path class="st26" d="M1330.6,1309.4h-189.9v-51.8c0-17.3,14-31.3,31.3-31.3h127.2c17.3,0,31.3,14,31.3,31.3V1309.4z"/>
		<path class="st27" d="M1271.3,1464.2l0-154.7h-59.4v154.7c0,21.5-10.7,42-29.3,52.9c-18,10.6-30.1,30.6-30.1,53.5h178.1
			c0-22.9-12.1-42.9-30-53.4C1282,1506.2,1271.3,1485.7,1271.3,1464.2z"/>
		<g class="st15">
			<path class="st28" d="M547.2,1380.6h95v35.6h-95V1380.6z"/>
		</g>
		<g class="st15">
			<path class="st28" d="M1330.6,1380.6h95v35.6h-95V1380.6z"/>
		</g>
		<g class="st15">
			<path class="st28" d="M1330.6,1440h95v35.6h-95V1440z"/>
		</g>
		<g class="st15">
			<path class="st28" d="M547.2,1440h95v35.6h-95V1440z"/>
		</g>
		<path class="st15" d="M1427,1036l-874.5,0.4c-21,0-40.8,13.1-46.5,33.3c-7.3,25.9,7.3,49.4,29.3,57.3v392.3
			c0,8.7,7,15.7,15.7,15.7h83.7c0,0-6.7,22.4-6.7,33.3c0,8.7,7,15.7,15.7,14.2h188.1c4.2,1.5,8.1-0.1,11.1-3.1s4.6-6.9,4.6-11.1
			c0-10.9-2.4-21.6-6.7-33.3h44.8c-4.3,11.7-6.7,22.4-6.7,33.3c0,8.7,7,15.7,15.7,14.2h188.1c4.2,1.5,8.1-0.1,11.1-3.1
			c2.9-2.9,4.6-6.9,4.6-11.1c0-10.9-2.4-21.6-6.7-33.3h44.8c-4.3,11.7-6.7,22.4-6.7,33.3c0,8.7,7,15.7,15.7,14.2h188.1
			c4.2,1.5,8.1-0.1,11.1-3.1c2.9-2.9,4.6-6.9,4.6-11.1c0-10.9-2.4-21.6-6.7-33.3h85c8.7,2,15.7-5.1,10.3-13.7v-394.7
			c23.6-6.5,36.7-23.7,36.7-44.1s-13.1-37.6-31.4-44.1 M1283.1,1036.4h-17.3 M1231,1036.4h-109.2 M549.6,1060.1h752.2h125.4h0
			c8.6,6.6,15.7,13.7,15.7,22.3c0,8.6-7,15.7-15.7,13.3H549.6c-8.6,2.4-15.7-4.7-15.7-13.3C533.9,1073.8,540.9,1066.8,549.6,1060.1z
			 M665.9,1558.7c3.6-10.2,10.6-19.1,20.1-24.7c24.6-14.8,39.3-40.3,39.3-68.1v-144.6h35.6v138.5c-7.5,27.8,7.3,53.2,32.2,68.1
			c9.5,5.7,20.3,30.9,20.3,30.9L665.9,1558.7L665.9,1558.7z M665.9,1285.7v-31.8c0-8.7,7-15.7,15.7-15.7h123c8.7,0,15.7,7,15.7,15.7
			v31.8H665.9z M915.2,1558.7c3.6-10.2,10.6-19.1,20.1-24.7c24.6-14.8,39.3-40.3,39.3-68.1v-144.6h35.6v138.5
			c-6.1,27.8,8.8,53.2,33.6,68.1c9.5,5.7,20.3,30.9,20.3,30.9L915.2,1558.7L915.2,1558.7z M915.2,1285.7v-31.8
			c0-8.7,7-15.7,15.7-15.7h123c8.7,0,15.7,7,15.7,15.7v31.8H915.2z M1164.4,1558.7c3.6-10.2,10.6-19.1,20.1-24.7
			c24.6-14.8,39.3-40.3,39.3-68.1v-144.6h35.6v138.5c-4.6,27.8,10.2,53.2,35.1,68.1c9.5,5.7,20.3,30.9,20.3,30.9L1164.4,1558.7
			L1164.4,1558.7z M1164.4,1285.7v-31.8c0-8.7,7-15.7,15.7-15.7h123c8.7,0,15.7,7,15.7,15.7v31.8H1164.4z M1318.8,1511.2v-5.5
			c-3.5-1.7-5.8-3.3-8.2-4.8c-15.3-9.1-27.4-41.1-27.4-41.1v-138.5h43.7c8.7,0,15.7-7,15.7-15.7v-44.1c0-26-21-47-47-47h-119.6
			c-26,0-47,21-47,47v44.1c0,8.7,7,15.7,15.7,15.7h55.6v138.5c-8,16.6-17.1,32-32.4,41.1c-2.4,1.5-4.7,3.1-3.3,4.8v5.5h-95v-5.5
			c-5-1.7-7.3-3.3-9.7-4.8c-15.3-9.1-25.9-41.1-25.9-41.1v-138.5h43.7c8.7,0,15.7-7,15.7-15.7v-44.1c0-26-21-47-47-47H926.6
			c-26,0-47,21-47,47v44.1c0,8.7,7,15.7,15.7,15.7h43.7v138.5c2.4,16.6-6.7,32-22,41.1c-2.4,1.5-4.7,3.1-13.7,4.8v5.5h-83.1v-5.5
			c-6.5-1.7-8.7-3.3-11.2-4.8c-15.3-9.1-24.4-41.1-24.4-41.1v-138.5h43.7c8.7,0,15.7-7,15.7-15.7v-44.1c0-26-21-47-47-47H677.3
			c-26,0-47,21-47,47v44.1c0,8.7,7,15.7,15.7,15.7h43.7v138.5c1,16.6-8.2,32-23.4,41.1c-2.4,1.5-4.7,3.1-12.2,4.8v5.5h-95v-35.6
			h83.1V1440H559v-35.6h83.1v-23.7H559v-249.3h854.7v249.3h-83.1v23.7h83.1v35.6h-83.1v35.6h83.1v35.6H1318.8z"/>
	</g>
	<g id="Bell" class="st2">
		<path class="st29" d="M670.3,933.9h5.7v11.3h-5.7V933.9z"/>
		<path class="st30" d="M738.4,1018.7v5.8H613.7v-5.8c0-2.2,1.3-4.2,3.4-5.2l1.2-0.6c2-0.9,3.3-2.8,3.4-4.9c0.2-3.3,2.5-6.2,5.8-6.2
			c21.8,0,75.2,0,97,0c3.3,0,5.6,2.8,5.8,6.1c0.1,2.1,1.4,4,3.4,4.9l1.2,0.6C737,1014.5,738.4,1016.5,738.4,1018.7L738.4,1018.7z"/>
		<path class="st31" d="M738.4,1018.7v5.8H727v-5.8c0-2.2-1.2-4.2-3.1-5.2c-1.4-0.7-2.6-1.2-3.6-2.8c-0.6-0.9-0.9-2-0.9-3.1
			c0-3.2-2.6-5.8-5.8-5.8l11.8,0c3.2,0,5.3,2.7,5.4,5.9c0,2.1,1.2,4.1,3.2,5.1l1.1,0.6C737.1,1014.5,738.4,1016.5,738.4,1018.7
			L738.4,1018.7z"/>
		<path class="st32" d="M721.4,990.6H625v-5.3c0-3.3,2.7-6,6-6h84.3c3.3,0,6,2.7,6,6V990.6z"/>
		<path class="st29" d="M670.3,990.6h11.3v5.7h-11.3V990.6z"/>
		<path class="st32" d="M717.5,977.8c0,0,1.8,0-84.6,0c0-21,19.7-38.3,41.6-38.3h1.4C697.9,939.5,717.5,956.8,717.5,977.8z"/>
		<path class="st33" d="M721.4,985.3v5.3H710v-5.7c0-3.1-2.5-5.7-5.6-5.7h10.8C718.7,979.2,721.4,981.9,721.4,985.3z"/>
		<path class="st33" d="M717.5,979.2h-12.3c0-19.6-17-35.5-36.1-37.9C695.8,937.9,717.5,957.3,717.5,979.2z"/>
		<path class="st32" d="M680.3,933.9h-10.1c-2.8-1.2-5-3.4-5-6.2c0-2.8,2.2-5,5-5.1h10.1c2.8,0.1,5,2.3,5,5.1
			C685.3,930.4,683.1,932.7,680.3,933.9z"/>
		<path class="st33" d="M685.3,927.7c0,2.8-2.3,5-5,6.2h-6c1.4-1.2,2.6-1.7,3.6-2.6c3.1-3.1,0.9-8.6-3.6-8.7h6
			C683.1,922.6,685.3,924.9,685.3,927.7z"/>
		<path class="st34" d="M738.4,1018.7v5.8H613.7v-5.8c0-2.2,1.3-4.2,3.4-5.2l1.2-0.6c2-0.9,3.3-2.8,3.4-4.9c0.2-3.3,2.5-6.2,5.8-6.2
			c21.8,0,75.2,0,97,0c3.3,0,5.6,2.8,5.8,6.1c0.1,2.1,1.4,4,3.4,4.9l1.2,0.6C737,1014.5,738.4,1016.5,738.4,1018.7L738.4,1018.7z"/>
		<path class="st34" d="M721.4,990.6H625v-5.3c0-3.3,2.7-6,6-6h84.3c3.3,0,6,2.7,6,6V990.6z"/>
		<path class="st34" d="M670.3,990.6h11.3v5.7h-11.3V990.6z"/>
		<path class="st34" d="M717.5,977.8c0,0,1.8,0-84.6,0c0-21,19.7-38.3,41.6-38.3h1.4C697.9,939.5,717.5,956.8,717.5,977.8z"/>
		<path class="st34" d="M680.3,933.9h-10.1c-2.8-1.2-5-3.4-5-6.2c0-2.8,2.2-5,5-5.1h10.1c2.8,0.1,5,2.3,5,5.1
			C685.3,930.4,683.1,932.7,680.3,933.9z"/>
	</g>
	<g id="Bell_1_" class="st2">
		<path class="st29" d="M1363.3,933.9h5.7v11.3h-5.7V933.9z"/>
		<path class="st30" d="M1431.4,1018.7v5.8h-124.7v-5.8c0-2.2,1.3-4.2,3.4-5.2l1.2-0.6c2-0.9,3.3-2.8,3.4-4.9
			c0.2-3.3,2.5-6.2,5.8-6.2c21.8,0,75.2,0,97,0c3.3,0,5.6,2.8,5.8,6.1c0.1,2.1,1.4,4,3.4,4.9l1.2,0.6
			C1430,1014.5,1431.4,1016.5,1431.4,1018.7L1431.4,1018.7z"/>
		<path class="st31" d="M1431.4,1018.7v5.8H1420v-5.8c0-2.2-1.2-4.2-3.1-5.2c-1.4-0.7-2.6-1.2-3.6-2.8c-0.6-0.9-0.9-2-0.9-3.1
			c0-3.2-2.6-5.8-5.8-5.8l11.8,0c3.2,0,5.3,2.7,5.4,5.9c0,2.1,1.2,4.1,3.2,5.1l1.1,0.6C1430.1,1014.5,1431.4,1016.5,1431.4,1018.7
			L1431.4,1018.7z"/>
		<path class="st32" d="M1414.4,990.6H1318v-5.3c0-3.3,2.7-6,6-6h84.3c3.3,0,6,2.7,6,6V990.6z"/>
		<path class="st29" d="M1363.3,990.6h11.3v5.7h-11.3V990.6z"/>
		<path class="st32" d="M1410.5,977.8c0,0,1.8,0-84.6,0c0-21,19.7-38.3,41.6-38.3h1.4C1390.9,939.5,1410.5,956.8,1410.5,977.8z"/>
		<path class="st33" d="M1414.4,985.3v5.3H1403v-5.7c0-3.1-2.5-5.7-5.6-5.7h10.8C1411.7,979.2,1414.4,981.9,1414.4,985.3z"/>
		<path class="st33" d="M1410.5,979.2h-12.3c0-19.6-17-35.5-36.1-37.9C1388.8,937.9,1410.5,957.3,1410.5,979.2z"/>
		<path class="st32" d="M1373.3,933.9h-10.1c-2.8-1.2-5-3.4-5-6.2c0-2.8,2.2-5,5-5.1h10.1c2.8,0.1,5,2.3,5,5.1
			C1378.3,930.4,1376.1,932.7,1373.3,933.9z"/>
		<path class="st33" d="M1378.3,927.7c0,2.8-2.3,5-5,6.2h-6c1.4-1.2,2.6-1.7,3.6-2.6c3.1-3.1,0.9-8.6-3.6-8.7h6
			C1376.1,922.6,1378.3,924.9,1378.3,927.7z"/>
		<path class="st34" d="M1431.4,1018.7v5.8h-124.7v-5.8c0-2.2,1.3-4.2,3.4-5.2l1.2-0.6c2-0.9,3.3-2.8,3.4-4.9
			c0.2-3.3,2.5-6.2,5.8-6.2c21.8,0,75.2,0,97,0c3.3,0,5.6,2.8,5.8,6.1c0.1,2.1,1.4,4,3.4,4.9l1.2,0.6
			C1430,1014.5,1431.4,1016.5,1431.4,1018.7L1431.4,1018.7z"/>
		<path class="st34" d="M1414.4,990.6H1318v-5.3c0-3.3,2.7-6,6-6h84.3c3.3,0,6,2.7,6,6V990.6z"/>
		<path class="st34" d="M1363.3,990.6h11.3v5.7h-11.3V990.6z"/>
		<path class="st34" d="M1410.5,977.8c0,0,1.8,0-84.6,0c0-21,19.7-38.3,41.6-38.3h1.4C1390.9,939.5,1410.5,956.8,1410.5,977.8z"/>
		<path class="st34" d="M1373.3,933.9h-10.1c-2.8-1.2-5-3.4-5-6.2c0-2.8,2.2-5,5-5.1h10.1c2.8,0.1,5,2.3,5,5.1
			C1378.3,930.4,1376.1,932.7,1373.3,933.9z"/>
	</g>
</g>
<g class="st0">
	<line class="st35" x1="194" y1="373.5" x2="541.5" y2="373.5"/>
	<line class="st35" x1="194" y1="456.5" x2="541.5" y2="456.5"/>
	<line class="st35" x1="194" y1="546.5" x2="541.5" y2="546.5"/>
	<line class="st35" x1="194" y1="629.5" x2="541.5" y2="629.5"/>
	<line class="st35" x1="194" y1="712.5" x2="541.5" y2="712.5"/>
	<line class="st35" x1="194" y1="795.5" x2="541.5" y2="795.5"/>
</g>
<g id="Menu">
	<g>
		<path class="st36" d="M551.1,847H214.5c-32.3,0-58.6-26.2-58.6-58.6V238.6c0-32.3,26.2-58.6,58.6-58.6h336.7
			c32.3,0,58.6,26.2,58.6,58.6v549.9C609.7,820.8,583.5,847,551.1,847z"/>
	</g>
	<text transform="matrix(1 0 0 1 194.1475 274.2739)"><tspan x="0" y="0" class="st37 st38 st39">MENU </tspan><tspan x="0" y="57.6" class="st37 st38 st40">•</tspan><tspan x="22.3" y="57.6" class="st37 st38 st41">Smackos</tspan><tspan x="0" y="115.2" class="st37 st38 st40">•</tspan><tspan x="22.3" y="115.2" class="st37 st38 st41">Blc (bcn, let, catnip)</tspan><tspan x="0" y="172.8" class="st37 st38 st40">•</tspan><tspan x="22.3" y="172.8" class="st37 st38 st41">Tuna</tspan><tspan x="0" y="230.4" class="st37 st38 st40">•</tspan><tspan x="22.3" y="230.4" class="st37 st38 st41">Mouse fillet</tspan></text>
	<g>
		<path class="st42" d="M617.2,847H148.5c-8.2,0-14.8-6.6-14.8-14.8v-9.3c0-8.2,6.6-14.8,14.8-14.8h468.7c8.2,0,14.8,6.6,14.8,14.8
			v9.3C632,840.4,625.4,847,617.2,847z"/>
	</g>
	<g>
		<path class="st37" d="M442.5,807.8c-1.2,0-2.2-1-2.2-2.2v-6c0-1.2,1-2.2,2.2-2.2h86c1.2,0,2.2,1,2.2,2.2v6c0,1.2-1,2.2-2.2,2.2
			H442.5z"/>
		<path class="st43" d="M528.5,797.5c1.1,0,2,0.9,2,2v6c0,1.1-0.9,2-2,2h-86c-1.1,0-2-0.9-2-2v-6c0-1.1,0.9-2,2-2H528.5 M528.5,797
			h-86c-1.4,0-2.5,1.1-2.5,2.5v6c0,1.4,1.1,2.5,2.5,2.5h86c1.4,0,2.5-1.1,2.5-2.5v-6C531,798.1,529.9,797,528.5,797L528.5,797z"/>
	</g>
	<g>
		<path class="st37" d="M584.2,808.5c-0.2,0-0.4,0-0.6-0.1l-83.1-17.6c-0.7-0.2-1.3-0.6-1.7-1.2c-0.4-0.6-0.5-1.4-0.4-2.1l1.1-5.1
			c0.3-1.3,1.4-2.2,2.7-2.2c0.2,0,0.4,0,0.6,0.1l83.1,17.6c0.7,0.2,1.3,0.6,1.7,1.2c0.4,0.6,0.5,1.4,0.4,2.1l-1.1,5.1
			C586.6,807.5,585.5,808.5,584.2,808.5C584.2,808.5,584.2,808.5,584.2,808.5z"/>
		<path class="st43" d="M502.1,780.5c0.2,0,0.4,0,0.5,0.1l83.1,17.6c1.4,0.3,2.2,1.6,1.9,3l-1.1,5.1c-0.2,1.2-1.3,2-2.4,2
			c-0.2,0-0.4,0-0.5-0.1l-83.1-17.6c-0.7-0.1-1.2-0.5-1.6-1.1c-0.4-0.6-0.5-1.2-0.4-1.9l1.1-5.1C499.9,781.3,501,780.5,502.1,780.5
			 M502.1,780c-1.4,0-2.6,1-2.9,2.4l-1.1,5.1c-0.3,1.6,0.7,3.2,2.3,3.6l83.1,17.6c0.2,0,0.4,0.1,0.6,0.1c1.4,0,2.6-1,2.9-2.4
			l1.1-5.1c0.3-1.6-0.7-3.2-2.3-3.6L502.8,780C502.6,780,502.4,780,502.1,780L502.1,780z"/>
	</g>
</g>
<g>
	<g>
		<circle class="st44" cx="1293.7" cy="204.8" r="155.6"/>
		<path class="st45" d="M1293.7,49.2c-2.8,0-5.5,0.1-8.3,0.2c82.1,4.3,147.3,72.2,147.3,155.3s-65.2,151-147.3,155.3
			c2.7,0.1,5.5,0.2,8.3,0.2c85.9,0,155.6-69.6,155.6-155.6S1379.6,49.2,1293.7,49.2z"/>
		<circle class="st46" cx="1293.7" cy="204.8" r="121.2"/>
		<path class="st47" d="M1293.7,83.5c-3.4,0-6.7,0.1-10,0.4c62.3,5.1,111.2,57.2,111.2,120.8s-49,115.7-111.2,120.8
			c3.3,0.3,6.6,0.4,10,0.4c66.9,0,121.2-54.3,121.2-121.2S1360.6,83.5,1293.7,83.5z"/>
		<circle class="st48" cx="1293.7" cy="204.8" r="12.5"/>
		<g>
			<path d="M1298.4,116v-6.5c0-2.4-1.7-4.5-4.1-4.8c-2.9-0.3-5.3,1.9-5.3,4.7v6.9c0,2.8,2.4,5,5.3,4.7
				C1296.7,120.5,1298.4,118.4,1298.4,116z"/>
			<path d="M1364.3,134c-1.8-1.8-4.8-1.8-6.6,0l-4.9,4.9c-1.8,1.8-1.8,4.8,0,6.6c0.9,0.9,2.1,1.4,3.3,1.4c1.2,0,2.4-0.5,3.3-1.4
				l4.9-4.9C1366.1,138.8,1366.1,135.8,1364.3,134L1364.3,134z"/>
			<path d="M1381.8,200.1c-2.8,0-5,2.4-4.7,5.3c0.3,2.4,2.4,4.1,4.8,4.1h6.5c2.4,0,4.5-1.7,4.8-4.1c0.3-2.9-1.9-5.3-4.7-5.3H1381.8z
				"/>
			<path d="M1359,263.8c-1.8-1.8-4.8-1.8-6.6,0c-1.8,1.8-1.8,4.8,0,6.6l4.9,4.9c0.9,0.9,2.1,1.4,3.3,1.4c1.2,0,2.4-0.5,3.3-1.4
				c1.8-1.8,1.8-4.8,0-6.6L1359,263.8z"/>
			<path d="M1288.4,292.8v6.7c0,2.4,1.7,4.5,4.1,4.8c2.9,0.3,5.3-1.9,5.3-4.7V293c0-2.4-1.7-4.5-4.1-4.8
				C1290.8,287.8,1288.4,290.1,1288.4,292.8L1288.4,292.8z"/>
			<path d="M1227.4,263.5l-4.9,4.9c-1.8,1.8-1.8,4.8,0,6.6c0.9,0.9,2.1,1.4,3.3,1.4c1.2,0,2.4-0.5,3.3-1.4l4.9-4.9
				c1.8-1.8,1.8-4.8,0-6.6C1232.2,261.6,1229.3,261.6,1227.4,263.5L1227.4,263.5z"/>
			<path d="M1198.2,199.4c-2.8,0-5,2.4-4.7,5.3c0.3,2.4,2.4,4.1,4.8,4.1h6.5c2.4,0,4.5-1.7,4.8-4.1c0.3-2.9-1.9-5.3-4.7-5.3
				L1198.2,199.4z"/>
			<path d="M1234.4,138.5l-4.9-4.9c-1.8-1.8-4.8-1.8-6.6,0c-1.8,1.8-1.8,4.8,0,6.6l4.9,4.9c0.9,0.9,2.1,1.4,3.3,1.4
				c1.2,0,2.4-0.5,3.3-1.4C1236.3,143.3,1236.3,140.4,1234.4,138.5z"/>
			<path d="M1306.3,216.5l33.4,17.2c2.3,1.2,5.1,0.3,6.3-2c1.2-2.3,0.3-5.1-2-6.3l-33.4-17.2c0.2-1.1,0.3-2.2,0.3-3.4
				c0-7.9-5.3-14.5-12.5-16.6v-47.7c0-2.4-1.7-4.5-4.1-4.8c-2.9-0.3-5.3,1.9-5.3,4.7v47.9c-5.7,1.6-10.2,6.1-11.9,11.9H1254
				c-2.4,0-4.5,1.7-4.8,4.1c-0.3,2.9,1.9,5.3,4.7,5.3h23.3c2,7.2,8.7,12.5,16.6,12.5C1298.7,222,1303.2,219.9,1306.3,216.5
				L1306.3,216.5z M1293.7,212.6c-4.3,0-7.8-3.5-7.8-7.8c0-4.3,3.5-7.8,7.8-7.8c4.3,0,7.8,3.5,7.8,7.8
				C1301.5,209.1,1298,212.6,1293.7,212.6z"/>
			<path d="M1414.9,200c2.6-0.2,4.5-2.5,4.3-5c-2.4-31.5-16.5-60.8-39.8-82.5c-23.4-21.7-53.8-33.7-85.8-33.7
				c-69.4,0-125.9,56.5-125.9,125.9s56.5,125.9,125.9,125.9c65.7,0,120.5-50.6,125.5-116.2c0.2-2.6-1.7-4.8-4.3-5
				c-2.6-0.2-4.8,1.7-5,4.3c-4.6,60.6-55.3,107.5-116.2,107.5c-64.3,0-116.5-52.3-116.5-116.5s52.3-116.5,116.5-116.5
				c29.6,0,57.7,11.1,79.4,31.2c21.5,20,34.6,47.1,36.8,76.3C1410,198.3,1412.3,200.2,1414.9,200L1414.9,200z"/>
			<path d="M1407,91.4c-30.3-30.3-70.5-46.9-113.3-46.9c-30.8,0-60.6,8.7-86.4,25.3c-2.2,1.4-2.8,4.3-1.4,6.5
				c1.4,2.2,4.3,2.8,6.5,1.4c24.3-15.6,52.4-23.8,81.4-23.8c40.3,0,78.2,15.7,106.7,44.2c28.5,28.5,44.2,66.4,44.2,106.7
				c0,83.4-67.5,150.9-150.9,150.9c-14.9,0-29.6-2.2-43.8-6.5c-2.5-0.8-5.1,0.6-5.9,3.1c-0.8,2.5,0.7,5.1,3.1,5.9
				c15,4.6,30.7,6.9,46.5,6.9c88.6,0,160.3-71.7,160.3-160.3C1453.9,161.9,1437.2,121.7,1407,91.4L1407,91.4z"/>
			<path d="M1232.8,342.8c-54.7-24.1-90-78.3-90-138.1c0-45.1,20-87.5,54.8-116.3c2-1.7,2.3-4.6,0.6-6.6c-1.7-2-4.6-2.3-6.6-0.6
				c-37,30.6-58.2,75.6-58.2,123.6c0,63.4,37.5,121,95.6,146.7c0.6,0.3,1.3,0.4,1.9,0.4c1.8,0,3.5-1,4.3-2.8
				C1236.2,346.6,1235.2,343.9,1232.8,342.8L1232.8,342.8z"/>
		</g>
	</g>
</g>
<g id="Bar_1_">
	<path class="st49" d="M162.8,1082.1h1298.9v418.3H162.8V1082.1z"/>
	<path class="st50" d="M162.8,1080.3h1298.9v36.1H162.8V1080.3z"/>
	<path class="st51" d="M153.8,1024.4h1316.9c11,0,19.8,8.9,19.8,19.8v37.9l0,0H134l0,0v-37.9C134,1033.3,142.9,1024.4,153.8,1024.4z
		"/>
</g>
<g id="Drinks">
	<path class="st52" d="M316.6,999.9v-64.1c0-4,2.9-7.6,6.8-8.2c5-0.7,9.2,3.1,9.2,7.9v64.6c0,4.8-4.3,8.7-9.2,7.9
		C319.5,1007.5,316.6,1003.9,316.6,999.9z"/>
	<path class="st53" d="M332.7,935.8v6.6c-5.2,1.6-10.8,1.6-16.1,0v-6.8c0-4.8,4.3-8.7,9.2-7.9C329.8,928.2,332.7,931.8,332.7,935.8z
		"/>
	<path class="st52" d="M332.7,879.1v-48c0-3,1.7-5.8,4.4-7.2l16.1-8c4.4-2.2,9.9,0,11.4,4.9c0.9,3.1-0.2,6.6-2.8,8.6
		c-0.4,0.3-0.9,0.6-1.4,0.9l-11.6,5.8v43.2c0,4.8-4.3,8.7-9.2,7.9C335.5,886.7,332.7,883.1,332.7,879.1z"/>
	<circle class="st54" cx="300.8" cy="871.3" r="24.1"/>
	<circle class="st55" cx="300.8" cy="871.3" r="14.3"/>
	<path class="st50" d="M156.1,992.2h208.9l0,0c0,17.8-14.4,32.1-32.1,32.1H188.3C170.5,1024.4,156.1,1010,156.1,992.2L156.1,992.2z"
		/>
	<path class="st56" d="M461.2,928v-32.1h-32.1V928l-3.4,3.4c-8.1,8.1-12.6,19.1-12.6,30.5v56.5c0,3.3,2.7,6,6,6h52.2
		c3.3,0,6-2.7,6-6v-56.5c0-11.4-4.5-22.4-12.6-30.5L461.2,928z"/>
	<path class="st57" d="M429.1,871.7h32.1v24.1h-32.1V871.7z"/>
	<path class="st58" d="M445.2,960.1h32.1v32.1h-32.1V960.1z"/>
	<path class="st49" d="M525.5,928v-32.1h-32.1V928l-16.1,32.1v58.3c0,3.3,2.7,6,6,6h52.2c3.3,0,6-2.7,6-6v-58.3L525.5,928z"/>
	<path class="st59" d="M493.4,871.7h32.1v24.1h-32.1V871.7z"/>
	<path class="st53" d="M509.4,960.1h32.1v32.1h-32.1V960.1z"/>
	<path class="st60" d="M297.3,911.6l-4.5-31.8H357l-4.6,32.4c-2.1,14.7-15.5,25.4-30.6,23.7C309.1,934.4,299.1,924.2,297.3,911.6z"
		/>
	<path class="st55" d="M180,911.9h64.3v80.3H180V911.9z"/>
	<path class="st52" d="M180,879.7h64.3v32.1H180V879.7z"/>
	<path class="st52" d="M231.2,833.3L207.7,849c-2.2,1.5-3.6,4-3.6,6.7v24.1h16.1v-19.8l21.1-14.1c3.7-2.5,4.4-7.3,1.7-10.8l0,0
		C240.2,831.7,234.9,830.8,231.2,833.3z"/>
	<path class="st54" d="M204.1,911.9h16.1v64.3h-16.1V911.9z"/>
	<path class="st61" d="M204.1,879.7h16.1v32.1h-16.1V879.7z"/>
	<path class="st53" d="M332.7,871.7h16.1v8h-16.1V871.7z"/>
</g>
<g id="Chairs">
	<path class="st62" d="M882.6,1226.3l-173.1,0.2v-48.9c0-6,4.9-10.8,10.8-10.8l0.1,0l151.4,1.4c5.9,0.1,10.7,4.9,10.7,10.9V1226.3z"
		/>
	<path class="st51" d="M824.9,1226.3v86.5h-57.7v-86.5h-57.7v274h57.7v-129.8h57.7v129.8h57.7v-274H824.9z"/>
	<g>
		<path class="st63" d="M709.5,1226.3h57.7v28.8h-57.7V1226.3z"/>
		<path class="st63" d="M824.9,1226.3h57.7v28.8h-57.7V1226.3z"/>
	</g>
</g>
<g id="Chairs_1_">
	<path class="st62" d="M473.6,1226.3l-173.1,0.2v-48.9c0-6,4.9-10.8,10.8-10.8l0.1,0l151.4,1.4c5.9,0.1,10.7,4.9,10.7,10.9V1226.3z"
		/>
	<path class="st51" d="M415.9,1226.3v86.5h-57.7v-86.5h-57.7v274h57.7v-129.8h57.7v129.8h57.7v-274H415.9z"/>
	<g>
		<path class="st63" d="M300.5,1226.3h57.7v28.8h-57.7V1226.3z"/>
		<path class="st63" d="M415.9,1226.3h57.7v28.8h-57.7V1226.3z"/>
	</g>
</g>
<g id="Chairs_2_">
	<path class="st62" d="M1322.6,1226.3l-173.1,0.2v-48.9c0-6,4.9-10.8,10.8-10.8l0.1,0l151.4,1.4c5.9,0.1,10.7,4.9,10.7,10.9V1226.3z
		"/>
	<path class="st51" d="M1264.9,1226.3v86.5h-57.7v-86.5h-57.7v274h57.7v-129.8h57.7v129.8h57.7v-274H1264.9z"/>
	<g>
		<path class="st63" d="M1149.5,1226.3h57.7v28.8h-57.7V1226.3z"/>
		<path class="st63" d="M1264.9,1226.3h57.7v28.8h-57.7V1226.3z"/>
	</g>
</g>
<g id="Sign">
	<path class="st64" d="M1312.2,1500.3h-173.1l43.3-259.6h173.1L1312.2,1500.3z"/>
	<path class="st65" d="M1355.5,1240.7h14.4l72.1,259.6h-129.8L1355.5,1240.7z"/>
	<path class="st66" d="M1283.3,1312.8h-57.2c-7.2,0-13.7-5.1-14.7-12.3c-1.3-8.9,5.6-16.6,14.3-16.6h57.2c7.2,0,13.7,5.1,14.7,12.3
		C1298.9,1305.2,1292,1312.8,1283.3,1312.8z"/>
	<path class="st66" d="M1247.3,1370.5h-35.6c-7.2,0-13.7-5.1-14.7-12.3c-1.3-8.9,5.6-16.6,14.3-16.6h35.6c7.2,0,13.7,5.1,14.7,12.3
		C1262.8,1362.9,1256,1370.5,1247.3,1370.5z"/>
	<path class="st66" d="M1240.1,1428.2h-42.8c-7.2,0-13.7-5.1-14.7-12.3c-1.3-8.9,5.6-16.6,14.3-16.6h42.8c7.2,0,13.7,5.1,14.7,12.3
		C1255.6,1420.6,1248.7,1428.2,1240.1,1428.2z"/>
</g>
<path class="st67" d="M1262.3,435.1c-98.2,0-177.8,46.7-177.8,104.3c0,24.7,14.6,47.4,39,65.2c1.7,1.3,3.5,2.5,5.4,3.7l-1.9-0.7
	l1.3,43.8l85.7-11.6l0,0c15.3,2.5,31.5,3.9,48.3,3.9c98.2,0,177.8-46.7,177.8-104.3C1440,481.8,1360.4,435.1,1262.3,435.1z"/>
</svg>
